<?xml version="1.0" standalone="no"?>
<!DOCTYPE svg PUBLIC "-//W3C//DTD SVG 20010904//EN"
 "http://www.w3.org/TR/2001/REC-SVG-20010904/DTD/svg10.dtd">
<svg version="1.0" xmlns="http://www.w3.org/2000/svg"
 width="1280.000000pt" height="761.000000pt" viewBox="0 0 1280.000000 761.000000"
 preserveAspectRatio="xMidYMid meet">
<metadata>
Created by potrace 1.15, written by Peter Selinger 2001-2017
</metadata>
<g transform="translate(0.000000,761.000000) scale(0.100000,-0.100000)"
fill="#ffffff" stroke="none">
<path d="M6270 7594 c-123 -33 -135 -42 -828 -672 -367 -333 -686 -623 -709
-644 -49 -44 -84 -49 -107 -16 -12 17 -16 50 -16 143 0 81 -4 125 -12 133 -9
9 -71 12 -218 12 -188 0 -208 -2 -223 -18 -15 -17 -17 -59 -17 -403 0 -211 -4
-389 -8 -394 -4 -6 -63 -62 -132 -124 -153 -140 -160 -147 -160 -191 0 -78 54
-110 188 -110 55 0 92 -4 100 -12 9 -9 12 -418 12 -1780 l0 -1768 23 5 c42 9
382 54 567 74 348 38 687 64 1027 77 l172 7 3 471 3 471 31 65 c88 186 298
273 559 230 131 -21 256 -116 313 -237 l27 -58 3 -475 3 -476 219 -12 c421
-24 922 -78 1352 -145 206 -33 207 -33 212 -12 3 11 6 814 6 1786 0 1359 3
1768 12 1777 8 8 45 12 100 12 54 0 102 6 123 14 54 23 80 93 52 142 -7 11
-516 479 -1133 1040 -862 784 -1134 1025 -1177 1046 -116 57 -252 73 -367 42z"/>
<path d="M3130 5465 c-321 -65 -567 -300 -650 -620 -9 -37 -16 -43 -88 -77
-132 -63 -237 -168 -302 -303 -50 -106 -65 -170 -65 -290 1 -134 2 -137 57
-118 24 9 88 18 143 21 173 8 325 -45 448 -158 29 -27 65 -65 78 -84 l24 -36
75 6 c252 20 490 -151 555 -397 41 -151 3 -328 -97 -460 l-34 -44 10 -220 c14
-326 -9 -778 -54 -1059 -5 -33 -8 -61 -7 -61 2 -2 606 117 614 120 1 0 -9 68
-22 150 -64 385 -101 922 -79 1133 6 58 8 60 29 52 39 -15 187 -32 222 -25
l33 6 0 1049 c0 993 -1 1050 -17 1050 -10 1 -38 28 -63 61 -177 238 -513 364
-810 304z"/>
<path d="M2170 3887 c-165 -56 -271 -159 -326 -317 -21 -58 -28 -68 -69 -90
-67 -36 -122 -85 -160 -144 -127 -194 -57 -461 150 -568 59 -30 65 -36 65 -64
0 -55 38 -157 77 -208 79 -103 189 -152 324 -144 l77 5 8 -96 c16 -222 -9
-599 -56 -831 -11 -52 -17 -96 -15 -98 5 -6 417 109 429 119 5 4 -1 57 -13
121 -42 229 -63 435 -65 643 -1 173 1 199 14 196 8 -2 49 -6 91 -9 125 -8 219
28 312 117 93 89 132 192 125 325 -5 80 -5 81 29 121 19 22 49 69 66 105 30
61 32 70 32 180 0 114 -1 117 -38 192 -80 163 -261 265 -433 243 -50 -6 -51
-6 -78 34 -31 44 -109 108 -171 139 -114 57 -261 68 -375 29z"/>
<path d="M8983 3465 c-40 -60 -43 -70 -43 -130 l0 -65 -80 0 -80 0 0 -90 0
-90 80 0 80 0 0 -724 0 -724 50 -11 c27 -6 68 -14 90 -17 l40 -7 0 742 0 741
145 0 145 0 0 -80 0 -80 -58 0 c-32 0 -63 -5 -70 -12 -9 -9 -12 -95 -12 -324
0 -312 0 -313 22 -328 20 -14 90 -16 565 -16 530 0 543 0 563 20 19 19 20 33
20 323 0 227 -3 307 -12 320 -9 11 -31 17 -73 19 l-60 3 -3 78 -3 77 92 0 c91
0 93 1 160 42 38 24 69 46 69 51 0 4 -28 25 -62 47 l-63 40 -682 0 -683 0 0
61 c0 54 -5 69 -42 130 -24 38 -45 69 -48 69 -3 0 -24 -30 -47 -65z m1277
-455 l0 -80 -405 0 -405 0 0 80 0 80 405 0 405 0 0 -80z m-300 -215 c23 -12
30 -23 30 -44 0 -37 -8 -43 -34 -26 -11 8 -35 15 -53 15 -40 0 -66 -34 -61
-82 3 -32 5 -33 51 -36 45 -3 47 -5 47 -33 0 -28 -1 -29 -50 -29 l-50 0 0 -60
0 -59 78 -3 77 -3 0 -30 0 -30 -142 -3 -143 -3 0 36 c0 28 4 35 20 35 18 0 20
7 20 60 0 53 -2 60 -20 60 -16 0 -20 7 -20 30 0 23 5 30 19 30 15 0 20 10 26
53 9 66 28 103 63 121 35 20 105 20 142 1z"/>
<path d="M5805 1719 c-1649 -58 -3272 -399 -4855 -1022 -399 -157 -896 -378
-927 -413 -61 -67 11 -161 98 -129 19 7 149 64 289 127 1102 495 2296 861
3480 1067 2256 391 4559 224 6730 -491 675 -222 1356 -500 1942 -794 70 -35
139 -64 154 -64 33 0 84 50 84 84 0 14 -10 36 -22 51 -14 14 -131 77 -278 149
-2105 1021 -4411 1515 -6695 1435z"/>
</g>
</svg>
